<?xml version="1.0" standalone="no"?>
<!DOCTYPE svg PUBLIC "-//W3C//DTD SVG 20010904//EN"
 "http://www.w3.org/TR/2001/REC-SVG-20010904/DTD/svg10.dtd">
<svg version="1.0" xmlns="http://www.w3.org/2000/svg"
 width="900.000000pt" height="918.000000pt" viewBox="0 0 450.000000 450.000000"
 preserveAspectRatio="xMidYMid meet">
<metadata>
Created by potrace 1.10, written by Peter Selinger 2001-2011
</metadata>
<g transform="translate(0.000000,918.000000) scale(0.050000,-0.050000)"
fill="#2ab86c" stroke="none">
<path d="M6180 17147 c-1044 -103 -1457 -256 -1811 -670 -388 -454 -444 -1024
-210 -2127 126 -591 142 -751 161 -1640 27 -1280 139 -1653 576 -1917 194
-117 724 -233 724 -159 0 139 -244 663 -592 1271 -494 863 -648 1301 -621
1765 32 554 179 767 832 1198 834 552 1362 1117 1682 1799 76 162 179 437 179
477 0 15 -768 18 -920 3z"/>
<path d="M984 15341 c-207 -20 -203 -13 -115 -170 346 -619 846 -913 1991
-1172 434 -98 806 -199 1031 -281 190 -68 187 -68 178 -23 -116 553 -330 896
-727 1164 -134 91 -477 261 -525 261 -16 0 -38 8 -48 18 -121 116 -1295 250
-1785 203z" fill="#b2de19"/>
<path d="M1360 13664 c0 -420 737 -1309 1336 -1612 503 -254 1116 -103 1375
338 302 515 -571 1155 -1719 1260 -626 57 -992 62 -992 14z" fill="#b2de19"/>
<path d="M6430 13382 c-375 -233 -672 -1848 -449 -2435 l19 -49 88 61 c423
290 711 953 810 1860 50 455 -186 739 -468 563z"/>
</g>
</svg>
